<svg xmlns="http://www.w3.org/2000/svg" viewBox="0 0 192 192" width="192" height="192">
  <!-- Background -->
  <rect width="192" height="192" rx="40" fill="#0A0A0F"/>
  <!-- Web pattern background -->
  <circle cx="96" cy="96" r="80" fill="none" stroke="#E31212" stroke-width="1" opacity="0.15"/>
  <circle cx="96" cy="96" r="55" fill="none" stroke="#E31212" stroke-width="1" opacity="0.1"/>
  <line x1="96" y1="16" x2="96" y2="176" stroke="#E31212" stroke-width="0.8" opacity="0.1"/>
  <line x1="16" y1="96" x2="176" y2="96" stroke="#E31212" stroke-width="0.8" opacity="0.1"/>
  <line x1="39" y1="39" x2="153" y2="153" stroke="#E31212" stroke-width="0.8" opacity="0.08"/>
  <line x1="153" y1="39" x2="39" y2="153" stroke="#E31212" stroke-width="0.8" opacity="0.08"/>
  
  <!-- Spider body -->
  <ellipse cx="96" cy="108" rx="28" ry="34" fill="#E31212"/>
  <ellipse cx="96" cy="78" rx="20" ry="22" fill="#E31212"/>
  
  <!-- Black details on body -->
  <ellipse cx="96" cy="108" rx="28" ry="34" fill="#CC0000"/>
  <!-- Web lines on body -->
  <line x1="96" y1="56" x2="96" y2="142" stroke="#111" stroke-width="2.5"/>
  <ellipse cx="96" cy="90" rx="14" ry="14" fill="none" stroke="#111" stroke-width="2"/>
  <ellipse cx="96" cy="110" rx="20" ry="16" fill="none" stroke="#111" stroke-width="1.5"/>
  <ellipse cx="96" cy="125" rx="24" ry="14" fill="none" stroke="#111" stroke-width="1.5"/>
  
  <!-- Legs left -->
  <line x1="68" y1="92" x2="28" y2="62" stroke="#E31212" stroke-width="5" stroke-linecap="round"/>
  <line x1="68" y1="104" x2="22" y2="96" stroke="#E31212" stroke-width="5" stroke-linecap="round"/>
  <line x1="68" y1="116" x2="28" y2="140" stroke="#E31212" stroke-width="5" stroke-linecap="round"/>
  <line x1="68" y1="128" x2="38" y2="155" stroke="#E31212" stroke-width="4" stroke-linecap="round"/>
  
  <!-- Legs right -->
  <line x1="124" y1="92" x2="164" y2="62" stroke="#E31212" stroke-width="5" stroke-linecap="round"/>
  <line x1="124" y1="104" x2="170" y2="96" stroke="#E31212" stroke-width="5" stroke-linecap="round"/>
  <line x1="124" y1="116" x2="164" y2="140" stroke="#E31212" stroke-width="5" stroke-linecap="round"/>
  <line x1="124" y1="128" x2="154" y2="155" stroke="#E31212" stroke-width="4" stroke-linecap="round"/>
  
  <!-- Head -->
  <ellipse cx="96" cy="78" rx="20" ry="22" fill="#CC0000"/>
  
  <!-- Miles Morales style eyes (angular/modern) -->
  <path d="M76 72 Q82 65 88 70 Q84 78 78 77 Z" fill="white"/>
  <path d="M116 72 Q110 65 104 70 Q108 78 114 77 Z" fill="white"/>
  
  <!-- "LETS GO" text -->
  <text x="96" y="170" text-anchor="middle" font-family="Arial Black, sans-serif" font-size="16" font-weight="900" fill="white" letter-spacing="2">LETS GO!</text>
</svg>
